<?xml version="1.0" encoding="utf-8"?>
<!-- Generator: Adobe Illustrator 16.0.4, SVG Export Plug-In . SVG Version: 6.00 Build 0)  -->
<!DOCTYPE svg PUBLIC "-//W3C//DTD SVG 1.1//EN" "http://www.w3.org/Graphics/SVG/1.1/DTD/svg11.dtd">
<svg version="1.1" id="Layer_1" xmlns="http://www.w3.org/2000/svg" xmlns:xlink="http://www.w3.org/1999/xlink" x="0px" y="0px"
	 width="17.375px" height="21.459px" viewBox="0 0 17.375 21.459" enable-background="new 0 0 17.375 21.459" xml:space="preserve">
<path fill="none" stroke="#010101" d="M9.774-5.271l-2,1l-1,1l-1,2v2l1,2l1,1l1,2v2l-2,2 M7.774-4.271l-1,2v2l1,2l1,1l1,2v2l-1,2
	l-4,2l4,2l1,2v2l-1,2l-1,1l-1,2v2l1,2 M6.774,11.729l2,2v2l-1,2l-1,1l-1,2v2l1,2l1,1l2,1"/>
</svg>
